<svg xmlns="http://www.w3.org/2000/svg" viewBox="0 0 240 240" width="240" height="240">
  <defs>
    <linearGradient id="acc" x1="0" y1="0" x2="1" y2="1">
      <stop offset="0" stop-color="#4338ca"/>
      <stop offset="1" stop-color="#7c3aed"/>
    </linearGradient>
  </defs>

  <g transform="translate(66,27)">
    <rect x="0" y="0" width="108" height="186" rx="12" fill="none" stroke="#1e1b4b" stroke-width="2.5"/>
    <rect x="9" y="9" width="90" height="168" rx="7" fill="none" stroke="#1e1b4b" stroke-width="1" opacity="0.45"/>

    <text x="54" y="34" text-anchor="middle" font-family="'Segoe UI',Arial,sans-serif" font-size="13" font-weight="600" letter-spacing="3" fill="#94a3b8">IV</text>

    <g transform="translate(54,100)">
      <g transform="scale(0.82)">
        <path d="M 0.0,-40.0 L 3.06,-7.39 L 28.28,-28.28 L 7.39,-3.06 L 40.0,0.0 L 7.39,3.06 L 28.28,28.28 L 3.06,7.39 L 0.0,40.0 L -3.06,7.39 L -28.28,28.28 L -7.39,3.06 L -40.0,0.0 L -7.39,-3.06 L -28.28,-28.28 L -3.06,-7.39 Z"
              fill="none" stroke="url(#acc)" stroke-width="3" stroke-linejoin="round"/>
      </g>
      <circle cx="0" cy="0" r="3.5" fill="url(#acc)"/>
    </g>

    <line x1="34" y1="156" x2="74" y2="156" stroke="#1e1b4b" stroke-width="1" opacity="0.35"/>
  </g>
</svg>
