<svg xmlns="http://www.w3.org/2000/svg" viewBox="0 0 840 300" width="840" height="300">
  <!-- one-ink version: replace with currentColor target #0f172a -->
  <g transform="translate(96,56)">
    <rect x="0" y="0" width="108" height="186" rx="12" fill="none" stroke="#0f172a" stroke-width="2.5"/>
    <rect x="9" y="9" width="90" height="168" rx="7" fill="none" stroke="#0f172a" stroke-width="1" opacity="0.45"/>
    <text x="54" y="34" text-anchor="middle" font-family="'Segoe UI',Arial,sans-serif" font-size="13" font-weight="600" letter-spacing="3" fill="#0f172a" opacity="0.6">IV</text>
    <g transform="translate(54,100)">
      <g transform="scale(0.82)">
        <path d="M 0.0,-40.0 L 3.06,-7.39 L 28.28,-28.28 L 7.39,-3.06 L 40.0,0.0 L 7.39,3.06 L 28.28,28.28 L 3.06,7.39 L 0.0,40.0 L -3.06,7.39 L -28.28,28.28 L -7.39,3.06 L -40.0,0.0 L -7.39,-3.06 L -28.28,-28.28 L -3.06,-7.39 Z"
              fill="none" stroke="#0f172a" stroke-width="3" stroke-linejoin="round"/>
      </g>
      <circle cx="0" cy="0" r="3.5" fill="#0f172a"/>
    </g>
    <line x1="34" y1="156" x2="74" y2="156" stroke="#0f172a" stroke-width="1" opacity="0.35"/>
  </g>

  <text x="256" y="150" font-family="'Segoe UI','Helvetica Neue',Arial,sans-serif" font-size="68" font-weight="800" letter-spacing="-2" fill="#0f172a">DeckStudio</text>
  <text x="259" y="186" font-family="'Segoe UI',Arial,sans-serif" font-size="15" font-weight="500" letter-spacing="6" fill="#0f172a" opacity="0.6">WEB&#160;&#160;DEVELOPMENT&#160;&#160;STUDIO</text>
</svg>
