<svg xmlns="http://www.w3.org/2000/svg" viewBox="0 0 100 100" width="100" height="100" fill="none">
  <defs>
    <linearGradient id="toothGrad" x1="0%" y1="0%" x2="100%" y2="100%">
      <stop offset="0%" stop-color="#a78bfa"/>
      <stop offset="100%" stop-color="#60a5fa"/>
    </linearGradient>
  </defs>
  
  <!-- Contorno de la muela (Corona y raíces bien definidas) -->
  <path d="M32,30 C32,20 40,16 50,22 C60,16 68,20 68,30 C68,45 60,55 60,65 C60,75 64,85 64,88 C64,90 60,90 58,88 C56,84 54,78 54,72 C54,68 46,68 46,72 C46,78 44,84 42,88 C40,90 36,90 36,88 C36,85 40,75 40,65 C40,55 32,45 32,30 Z" 
        stroke="url(#toothGrad)" stroke-width="3" stroke-linejoin="round" stroke-linecap="round"/>
        
  <!-- Línea divisoria de la corona superior -->
  <path d="M42,23 C45,26 48,27 50,27 C52,27 55,26 58,23" 
        stroke="url(#toothGrad)" stroke-width="2" stroke-linecap="round" opacity="0.6"/>
        
  <!-- Detalle interior sutil (línea oclusal vertical) -->
  <path d="M50,27 L50,42" 
        stroke="url(#toothGrad)" stroke-width="1.5" stroke-linecap="round" opacity="0.4"/>
</svg>
